<?xml version="1.0" encoding="UTF-8"?>
<svg id="Layer_1" xmlns="http://www.w3.org/2000/svg" version="1.1" viewBox="0 0 1000 1000">
  <!-- Generator: Adobe Illustrator 30.2.1, SVG Export Plug-In . SVG Version: 2.1.1 Build 1)  -->
  <defs>
    <style>
      .st0 {
        fill: #0141ad;
      }

      .st1 {
        fill: #f2d533;
      }
    </style>
  </defs>
  <g>
    <g>
      <path class="st0" d="M725.73,255.83c-127.94,27.46-170.99,81.04-194.49,146.08-5.4,14.94-9.36,27.85-12.27,38.82-2.93,11.05,11.06,18.29,18.47,9.58,67.25-79.03,157.95-49.9,157.95-49.9,1.51,48.12-22.21,85.2-54.32,113.22-83.73,73.06-209.96,73.06-293.69,0-32.11-28.02-55.82-65.1-54.32-113.22,0,0,90.7-29.13,157.95,49.9,7.41,8.71,21.4,1.47,18.47-9.58-2.91-10.98-6.88-23.89-12.27-38.82-23.5-65.03-66.55-118.62-194.49-146.08-45.1-9.68-135.8-11.45-169.31,11.27,0,0,75.47,41.98,107.44,143.91,27.52,87.74,162.42,222.36,293.37,222.36s265.85-134.62,293.37-222.36c31.97-101.94,107.44-143.91,107.44-143.91-33.52-22.72-124.21-20.95-169.31-11.27Z"/>
      <path class="st1" d="M575.64,197.54c6.99-7.99,1.49-20.5-9.13-20.75l-34.11-.8c-4.66-.11-8.87-2.8-10.93-6.97l-16.02-32.46c-4.59-9.3-17.86-9.3-22.45,0l-16.02,32.46c-2.06,4.18-6.27,6.86-10.93,6.97l-34.11.8c-10.61.25-16.11,12.77-9.13,20.75l27.98,31.98c2.48,2.84,3.55,6.64,2.92,10.36l-6.39,37.27c-1.75,10.22,8.98,18.02,18.16,13.19l32.92-17.31c3.65-1.92,8-1.92,11.65,0l32.92,17.31c9.18,4.83,19.91-2.97,18.16-13.19l-6.39-37.27c-.64-3.72.43-7.52,2.92-10.36l27.98-31.98Z"/>
    </g>
    <path class="st1" d="M500,700.76s-111.33-122.68-443.45-127.05l-43.02,54.53c365.72-6.28,486.47,127.04,486.47,127.04,0,0,120.76-133.32,486.47-127.04l-43.02-54.53c-332.11,4.38-443.45,127.05-443.45,127.05Z"/>
    <path class="st1" d="M986.47,702.47l-43.02-54.53c-332.11,4.38-443.45,127.05-443.45,127.05,0,0-111.33-122.68-443.45-127.05l-43.02,54.53c275.95-4.74,412.38,69.98,462.75,106.95-.29,1.49-.46,3.02-.46,4.59,0,13.35,10.83,24.18,24.18,24.18s24.18-10.83,24.18-24.18c0-1.57-.18-3.1-.46-4.59,50.38-36.98,186.81-111.69,462.75-106.95Z"/>
  </g>
  <path class="st0" d="M-306.92,326.86c-35.56,7.63-47.53,22.53-54.06,40.6-1.5,4.15-2.6,7.74-3.41,10.79-.81,3.07,3.07,5.08,5.13,2.66,18.69-21.97,43.91-13.87,43.91-13.87.42,13.38-6.17,23.68-15.1,31.47-23.27,20.31-58.36,20.31-81.63,0-8.92-7.79-15.52-18.09-15.1-31.47,0,0,25.21-8.1,43.9,13.87,2.06,2.42,5.95.41,5.13-2.66-.81-3.05-1.91-6.64-3.41-10.79-6.53-18.08-18.5-32.97-54.06-40.6-12.54-2.69-37.75-3.18-47.06,3.13,0,0,20.98,11.67,29.87,40,7.65,24.39,45.15,61.81,81.55,61.81s73.9-37.42,81.55-61.81c8.89-28.33,29.87-40,29.87-40-9.32-6.32-34.53-5.82-47.06-3.13Z"/>
</svg>